HIERARCHY
ROOT Bone
{
	OFFSET 0.000000 0.000000 0.000000
	CHANNELS 6 Xposition Yposition Zposition Xrotation Yrotation Zrotation
	JOINT Bone.001
	{
		OFFSET 0.000000 0.000000 0.155911
		CHANNELS 3 Xrotation Yrotation Zrotation
		JOINT Bone.002
		{
			OFFSET 0.000000 0.000000 0.132907
			CHANNELS 3 Xrotation Yrotation Zrotation
			JOINT Bone.003
			{
				OFFSET 0.000000 0.000000 0.127796
				CHANNELS 3 Xrotation Yrotation Zrotation
				JOINT Bone.004
				{
					OFFSET -0.005112 0.000000 0.127796
					CHANNELS 3 Xrotation Yrotation Zrotation
					JOINT Bone.005
					{
						OFFSET -0.005112 0.000000 0.127796
						CHANNELS 3 Xrotation Yrotation Zrotation
						End Site
						{
							OFFSET 0.002556 0.000000 0.127796
						}
					}
				}
			}
		}
	}
}
MOTION
Frames: 20
Frame Time: 0.041667
0.000000 0.000000 0.000000 0.000000 0.000000 0.000000 0.000000 0.000000 0.000000 0.000000 0.000000 0.000000 0.000000 -2.290610 0.000000 0.000000 0.000000 0.000000 0.000000 3.436373 0.000000 
0.000000 0.000000 0.000000 0.000000 0.000000 0.000000 0.000000 0.000000 0.000000 0.000000 0.000000 0.000000 0.000000 -2.290610 0.000000 0.000000 0.000000 0.000000 0.000000 3.436373 0.000000 
0.000000 0.000000 0.000000 0.000000 0.987760 0.000000 0.000000 -0.987760 0.000000 0.000000 0.000000 0.000000 0.000000 -1.123303 0.000000 0.000000 -2.243158 0.000000 0.000000 4.489763 0.000000 
0.000000 0.000000 0.000000 0.000000 0.987760 0.000000 0.000000 -0.987760 0.000000 0.000000 0.000000 0.000000 0.000000 -1.123303 0.000000 0.000000 -2.243158 0.000000 0.000000 4.489763 0.000000 
0.000000 0.000000 0.000000 0.000000 1.023030 0.000000 0.000000 -1.023030 0.000000 0.000000 0.000000 0.000000 0.000000 -1.123303 0.000000 0.000000 -2.243158 0.000000 0.000000 4.489763 0.000000 
0.000000 0.000000 0.000000 0.000000 1.023030 0.000000 0.000000 -1.023030 0.000000 0.000000 0.000000 0.000000 0.000000 -1.101706 0.000000 0.000000 -1.100892 0.000000 0.000000 3.304304 0.000000 
0.000000 0.000000 0.000000 0.000000 1.041627 0.000000 0.000000 0.039298 0.000000 0.000000 -2.161848 0.000000 0.000000 0.000000 0.000000 0.000000 -1.080155 0.000000 0.000000 3.242004 0.000000 
0.000000 0.000000 0.000000 0.000000 2.082565 0.000000 0.000000 -2.082565 0.000000 0.000000 0.000000 0.000000 0.000000 -2.161079 0.000000 0.000000 0.000000 0.000000 0.000000 3.242004 0.000000 
0.000000 0.000000 0.000000 0.000000 1.080924 0.000000 0.000000 0.020782 0.000000 0.000000 -1.101706 0.000000 0.000000 -1.080924 0.000000 0.000000 -1.080155 0.000000 0.000000 2.161079 0.000000 
0.000000 0.000000 0.000000 0.000000 2.202598 0.000000 0.000000 -1.179568 0.000000 0.000000 -1.023030 0.000000 0.000000 -2.161079 0.000000 0.000000 0.000000 0.000000 0.000000 3.242004 0.000000 
0.000000 0.000000 0.000000 0.000000 2.337306 0.000000 0.000000 -1.295679 0.000000 0.000000 -1.041627 0.000000 0.000000 -1.060912 0.000000 0.000000 -1.060185 0.000000 0.000000 3.182008 0.000000 
0.000000 0.000000 0.000000 0.000000 3.503532 0.000000 0.000000 -2.461905 0.000000 0.000000 -1.041627 0.000000 0.000000 -1.060912 0.000000 0.000000 -1.060185 0.000000 0.000000 3.182008 0.000000 
0.000000 0.000000 0.000000 0.000000 3.900494 0.000000 0.000000 -1.890940 0.000000 0.000000 -2.009554 0.000000 0.000000 0.000000 0.000000 0.000000 -2.082565 0.000000 0.000000 2.082565 0.000000 
0.000000 0.000000 0.000000 0.000000 3.900494 0.000000 0.000000 -1.890940 0.000000 0.000000 -2.009554 0.000000 0.000000 0.000000 0.000000 0.000000 -2.082565 0.000000 0.000000 2.082565 0.000000 
0.000000 0.000000 0.000000 0.000000 5.314546 0.000000 0.000000 -3.373059 0.000000 0.000000 -0.918456 0.000000 0.000000 -1.023030 0.000000 0.000000 -1.023030 0.000000 0.000000 2.046060 0.000000 
0.000000 0.000000 0.000000 0.000000 5.440332 0.000000 0.000000 -2.427545 0.000000 0.000000 -2.007701 0.000000 0.000000 0.000000 0.000000 0.000000 -2.010172 0.000000 0.000000 1.005086 0.000000 
0.000000 0.000000 0.000000 0.000000 5.440332 0.000000 0.000000 -1.426156 0.000000 0.000000 -2.991146 0.000000 0.000000 0.000000 0.000000 0.000000 -2.046060 0.000000 0.000000 2.046060 0.000000 
0.000000 0.000000 0.000000 0.000000 6.788975 0.000000 0.000000 -3.828038 0.000000 0.000000 -1.937906 0.000000 0.000000 1.022378 0.000000 0.000000 -3.068439 0.000000 0.000000 2.046060 0.000000 
0.000000 0.000000 0.000000 0.000000 5.440332 0.000000 0.000000 -0.513222 0.000000 0.000000 -3.922024 0.000000 0.000000 0.000000 0.000000 0.000000 -2.010172 0.000000 0.000000 2.010172 0.000000 
0.000000 0.000000 0.000000 0.000000 5.440332 0.000000 0.000000 -1.495146 0.000000 0.000000 -1.899778 0.000000 0.000000 -1.022378 0.000000 0.000000 -1.023030 0.000000 0.000000 1.023030 0.000000 
